<svg xmlns="http://www.w3.org/2000/svg" viewBox="0 0 553.77 99.48"><defs><style>.cls-1{fill:#c8ad1a;}.cls-2{fill:#f2cd00;}.cls-3{fill:#fff;}</style></defs><g id="Layer_2" data-name="Layer 2"><g id="Layer_1-2" data-name="Layer 1"><path class="cls-1" d="M163.7,85.72,143.63,64.06l16.83-14.67c6.42-5.61,9-7.07,14-7.8l1.28-.19V38.2H158.45v3l1.07.32c.46.14,1,.31,1.42.46a24.5,24.5,0,0,1-4.13,4.09L137.93,62.42V49.94c0-6.14.75-7.47,4.68-8.37l1.16-.27V38.2H123.33v3.1l1.17.27c3.93.9,4.67,2.23,4.67,8.37V85.46c0,6.14-.74,7.47-4.67,8.38l-1.17.27V97.2h20.44V94.11l-1.16-.27c-3.93-.91-4.68-2.24-4.68-8.38V70.81l18.6,20.07h0c5.15,5.48,6.18,6.39,12.45,6.39l2.49,0c1.12,0,2.38,0,3.83,0h1.5V94.05l-1.23-.22C172.51,93.27,170.29,92.87,163.7,85.72Z"/><path class="cls-1" d="M226.78,84.06c-2,3.94-5.25,8.46-12.67,8.46H200.19c-3.61,0-4.82-1-4.82-7.06V69.36h11.7c2.6,0,5.46.41,6.54,5.23l.26,1.17H217V58.12h-3.1l-.26,1.18c-1.08,4.89-3.94,5.3-6.54,5.3h-11.7V49.94c0-6,1.21-7.06,4.82-7.06h11.52c7,0,9.62,4,11.87,8.38l.41.82h3.32L223.69,37.4h-2.42l-.27.11c-1.7.68-1.73.69-7.77.69H180.77v3.1l1.17.27c3.93.9,4.67,2.23,4.67,8.37V85.46c0,6.14-.74,7.47-4.67,8.38l-1.17.27V97.2h34.86c6,0,6,0,7.69.7l.27.1h2.34l4.72-14.76h-3.46Z"/><path class="cls-1" d="M280.63,37.4l-.27.11c-1.7.68-1.73.69-7.77.69H245.71c-6,0-6.06,0-7.76-.69l-.27-.11h-2.42l-3.62,14.68H235l.42-.82.68-1.37c2-4.07,3.43-7,9.58-7h4.8c3,0,4.34.67,4.34,7.06V85.46c0,6.14-.74,7.47-4.67,8.38l-1.17.27V97.2h20.44V94.11l-1.16-.27c-3.93-.91-4.68-2.24-4.68-8.38V49.94c0-6,1.21-7.06,4.82-7.06h4.32c6.16,0,7.59,2.94,9.59,7,.22.45.44.91.68,1.37l.41.82h3.32L283.05,37.4Z"/><path class="cls-1" d="M337.26,84.06c-2,3.94-5.25,8.46-12.67,8.46H310.67c-3.61,0-4.82-1-4.82-7.06V69.36h11.7c2.6,0,5.46.41,6.54,5.23l.26,1.17h3.1V58.12h-3.1l-.26,1.18c-1.08,4.89-3.94,5.3-6.54,5.3h-11.7V49.94c0-6.08,1.15-7.06,4.82-7.06h11.52c7,0,9.62,4,11.87,8.38l.41.82h3.32L334.17,37.4h-2.42l-.27.11c-1.7.68-1.73.69-7.77.69H291.25v3.1l1.17.27c3.93.9,4.67,2.23,4.67,8.37V85.46c0,6.14-.74,7.47-4.67,8.38l-1.17.27V97.2h34.86c6,0,6,0,7.69.7l.27.1h2.34l4.72-14.76h-3.46Z"/><path class="cls-1" d="M390.08,85.81l-13-16.19C386.62,67.88,392,62.38,392,54.26c0-10.2-8.12-16.06-22.3-16.06H345.17v3.1l1.17.27c3.93.9,4.67,2.23,4.67,8.37V85.46c0,6.14-.74,7.47-4.67,8.38l-1.17.27V97.2h20.44V94.11l-1.16-.27c-3.93-.91-4.68-2.24-4.68-8.38V70.24h6.82L383.1,90.8c4.21,5.26,5.73,6.48,11,6.48l2.27,0c1.07,0,2.3,0,3.73,0h1.5V93.62l-1.26-.2C397.45,93,395.31,92.23,390.08,85.81ZM359.77,49.94c0-6.08,1.15-7.06,4.82-7.06h5.12c9.16,0,13.06,3.31,13.06,11.06,0,8.15-3.9,11.62-13.06,11.62h-9.94Z"/><path class="cls-1" d="M405.49,41.3l1.17.27c3.93.9,4.67,2.23,4.67,8.37V85.46c0,6.14-.74,7.47-4.67,8.38l-1.17.27V97.2h20.44V94.11l-1.16-.27c-3.93-.91-4.68-2.24-4.68-8.38V49.94c0-6.14.75-7.47,4.68-8.37l1.16-.27V38.2H405.49Z"/><path class="cls-1" d="M473.73,41.31l1.18.26c3.5.76,4.66,1.94,4.66,7.41V81.59L447.19,38.2H433.81v3.11l1.18.26c3.5.76,4.66,1.94,4.66,7.41V86.42c0,5.48-1.16,6.66-4.66,7.42l-1.18.26v3.1h16.44V94.09l-1.19-.25c-3.54-.75-4.65-1.87-4.65-7.42V49.17l35.91,48h4V49c0-5.54,1.11-6.66,4.65-7.41l1.19-.25V38.2H473.73Z"/><path class="cls-1" d="M533.73,68.84v3.1l1.17.27c3.93.9,4.67,2.24,4.67,8.38v3.34c-.07,5.74-5.19,9.32-13.37,9.32-12.44-.08-22.77-11-24-25.44-.08-.81-.08-1.72-.08-2.59,0-6.88,2.42-13,6.82-17.15s10.74-6.28,18.17-5.91a11.41,11.41,0,0,1,9,4.46,20.59,20.59,0,0,1,1.34,2.08c1,1.77,2.11,3.6,4.12,4.06a5.64,5.64,0,0,0,1.32.12,4,4,0,0,0,4.22-4.22c0-6-9.48-11.26-20.3-11.26-19.27,0-33.26,12.78-33.26,30.38,0,17.8,13.12,30.22,31.9,30.22,14,0,21.93-7.53,22.54-15V80.59c0-6.14.75-7.48,4.68-8.38l1.16-.27v-3.1Z"/><polygon class="cls-2" points="523.34 0.06 528.15 9.82 538.92 11.38 531.13 18.98 532.97 29.7 523.34 24.64 513.71 29.7 515.54 18.98 507.75 11.38 518.52 9.82 523.34 0.06"/><polygon class="cls-2" points="476.71 0.47 481.52 10.23 492.3 11.79 484.5 19.39 486.34 30.11 476.71 25.05 467.08 30.11 468.92 19.39 461.12 11.79 471.89 10.23 476.71 0.47"/><polygon class="cls-2" points="430.69 0 435.5 9.76 446.27 11.32 438.48 18.92 440.32 29.65 430.69 24.58 421.06 29.65 422.89 18.92 415.1 11.32 425.87 9.76 430.69 0"/><polygon class="cls-2" points="382.62 0.43 387.44 10.19 398.21 11.75 390.42 19.35 392.26 30.07 382.62 25.01 372.99 30.07 374.83 19.35 367.04 11.75 377.81 10.19 382.62 0.43"/><polygon class="cls-2" points="335.28 0.43 340.1 10.19 350.87 11.75 343.08 19.35 344.92 30.07 335.28 25.01 325.65 30.07 327.49 19.35 319.7 11.75 330.47 10.19 335.28 0.43"/><path class="cls-3" d="M72,21.43l1,1.73,1.36-1.49c3.66-4,10.07-6.55,16.74-6.55,7.31,0,13.18,2.84,16.12,7.81a20.81,20.81,0,0,1,1.63,3.54c1.06,2.78,2.26,5.93,6.61,5.93a5.16,5.16,0,0,0,5.45-5.28c.13-3.53-2.31-7.23-6.83-10.38C108.3,12.37,100.44,10,92,10c-8.3,0-16.19,2.44-21.66,6.69l-1.25,1,1,1.2A18.64,18.64,0,0,1,72,21.43Z"/><path class="cls-3" d="M93.28,46.87c-6.93-2.46-13.48-4.79-17.66-8.24l-1.56-1.29-.78,1.87a20.7,20.7,0,0,1-4.44,6.64L67.72,47,68.92,48C74.6,53,83,56.12,91.16,59.09c11.82,4.31,23,8.38,24,17.57l0,.13a8.07,8.07,0,0,1,.09,1.51c0,10.51-10.42,15.3-20.09,15.3-6.69,0-14.44-3.09-20.25-8.06L50.79,60.61l-3.11-3.87a1.86,1.86,0,0,1,1-3c12.92-2.85,20-10.65,20-22C68.76,17,56.84,8.48,36.06,8.48H0v3.29L1.16,12c6.65,1.53,7.6,4.21,7.6,13.3V78.61c0,9.09-1,11.77-7.6,13.3L0,92.18v3.29H29.16V92.18L28,91.91c-6.65-1.53-7.6-4.21-7.6-13.3V56.89A1.86,1.86,0,0,1,22.26,55h8.59a1.88,1.88,0,0,1,1.45.7L60.11,85.09l.12.11C61.78,86.51,63,87.54,64,88.37a11.15,11.15,0,0,0,1.49,1.41c.58.47,1.16.92,1.69,1.3a15.87,15.87,0,0,0,3,2,45.53,45.53,0,0,0,23.63,6.41c14.78,0,29.7-7.55,29.7-24.42C123.45,57.59,107.42,51.89,93.28,46.87ZM20.4,25.34c0-9,1.64-11.34,8-11.34h7.68C50.31,14,56.4,19.18,56.4,31.34c0,12.74-6.09,18.17-20.34,18.17H22.26a1.86,1.86,0,0,1-1.86-1.86Z"/></g></g></svg>