<svg xmlns="http://www.w3.org/2000/svg" viewBox="0 0 123.45 91"><defs><style>.cls-1{fill:#fff;}</style></defs><g id="Layer_2" data-name="Layer 2"><g id="Layer_1-2" data-name="Layer 1"><path class="cls-1" d="M72,13l1,1.74,1.36-1.5c3.66-4,10.07-6.55,16.74-6.55,7.31,0,13.18,2.84,16.12,7.81A20.55,20.55,0,0,1,108.86,18c1.06,2.77,2.26,5.92,6.61,5.92a5.16,5.16,0,0,0,5.45-5.28c.13-3.53-2.31-7.23-6.83-10.38C108.3,3.89,100.44,1.48,92,1.48c-8.3,0-16.19,2.44-21.66,6.7L69,9.15l1,1.19A19.89,19.89,0,0,1,72,13Z"/><path class="cls-1" d="M93.28,38.4c-6.93-2.47-13.48-4.8-17.66-8.24l-1.56-1.29-.78,1.86a20.74,20.74,0,0,1-4.44,6.65l-1.12,1.13,1.2,1.05c5.68,5,14.1,8.08,22.24,11,11.82,4.31,23,8.39,24,17.58l0,.13a7.91,7.91,0,0,1,.09,1.5c0,10.51-10.42,15.3-20.09,15.3-6.69,0-14.44-3.09-20.25-8.06L50.79,52.13l-3.11-3.87a1.86,1.86,0,0,1,1-3c12.92-2.85,20-10.64,20-21.95C68.76,8.51,56.84,0,36.06,0H0V3.29l1.16.27c6.65,1.54,7.6,4.21,7.6,13.3V70.14c0,9.08-1,11.76-7.6,13.29L0,83.7V87H29.16V83.7L28,83.43c-6.65-1.53-7.6-4.21-7.6-13.29V48.42a1.86,1.86,0,0,1,1.86-1.86h8.59a1.87,1.87,0,0,1,1.45.69L60.11,76.61l.12.12C61.78,78,63,79.06,64,79.89a10.53,10.53,0,0,0,1.49,1.41c.58.47,1.16.92,1.69,1.3a16.42,16.42,0,0,0,3,2A45.52,45.52,0,0,0,93.75,91c14.78,0,29.7-7.55,29.7-24.42C123.45,49.11,107.42,43.42,93.28,38.4ZM20.4,16.86c0-9,1.64-11.34,8-11.34h7.68c14.25,0,20.34,5.19,20.34,17.34C56.4,35.6,50.31,41,36.06,41H22.26a1.86,1.86,0,0,1-1.86-1.86Z"/></g></g></svg>